<svg xmlns="http://www.w3.org/2000/svg" xmlns:xlink="http://www.w3.org/1999/xlink" version="1.1" width="170"
     height="170" viewBox="0 0 100 100">


    <defs>
        <linearGradient id="Gradient_1" gradientUnits="userSpaceOnUse" x1="50" y1="50" x2="50" y2="0"
                        spreadMethod="pad">
            <stop offset="0%" stop-color="#FFFFFF" stop-opacity="0.2"/>
            <stop offset="100%" stop-color="#FFFFFF" stop-opacity="0.7"/>
        </linearGradient>
        <linearGradient id="Gradient_2" gradientUnits="userSpaceOnUse" x1="100" y1="48" x2="28" y2="48"
                        spreadMethod="pad">
            <stop offset="0%" stop-color="#FFFFFF" stop-opacity="0.1"/>
            <stop offset="100%" stop-color="#FFFFFF" stop-opacity="0.7"/>
        </linearGradient>
        <linearGradient id="Gradient_3" gradientUnits="userSpaceOnUse" x1="0" y1="48" x2="72" y2="48"
                        spreadMethod="pad">
            <stop offset="0%" stop-color="#FFFFFF" stop-opacity="0.1"/>
            <stop offset="100%" stop-color="#FFFFFF" stop-opacity="0.7"/>
        </linearGradient>
        <g id="background">
            <path fill="url(#background-gradient)" stroke="none"
                  d="  M 100 4.65  Q 100 2.7 98.65 1.35 97.25 0 95.35 0  L 4.65 0  Q 2.75 0 1.35 1.35 0 2.7 0 4.65  L 0 96.3 4.65 100 95.35 100 100 96.3 100 4.65 Z"/>
        </g>
        <g id="middle-1">
            <path fill="#000000" fill-opacity="0.30196078431372547" stroke="none"
                  d="  M 4.65 100  L 95.35 100 100 96.3 0 96.3 4.65 100 Z"/>
            <path fill="#FFFFFF" fill-opacity="0.5019607843137255" stroke="none"
                  d="  M 100 4.65  Q 100 2.75 98.65 1.35 97.3 0 95.35 0  L 4.65 0  Q 2.75 0 1.35 1.35 0 2.75 0 4.65  L 100 4.65 Z"/>
        </g>
        <mask id="mask">
            <path fill="#FFFFFF" stroke="none"
                  d="  M 100 4.65  Q 100 2.7 98.65 1.35 97.25 0 95.35 0  L 4.65 0  Q 2.75 0 1.35 1.35 0 2.7 0 4.65  L 0 96.3 100 96.3 100 4.65 Z"/>
        </mask>
        <g id="gloss-top">
            <path fill="url(#Gradient_1)" stroke="none"
                  d="  M 100 4.65  Q 100 2.75 98.65 1.35 97.25 0 95.3 0  L 4.65 0  Q 2.75 0 1.35 1.35 0 2.75 0 4.65  L 0 49.9 100 49.9 100 4.65 Z"/>
        </g>
        <g id="gloss-right">
            <path fill="url(#Gradient_2)" stroke="none"
                  d="  M 100 4.65  Q 100 2.75 98.65 1.35 97.25 0 95.35 0  L 27.9 0 100 96.1 100 4.65 Z"/>
        </g>
        <g id="gloss-left">
            <path fill="url(#Gradient_3)" stroke="none"
                  d="  M 1.35 1.35  Q 0 2.75 0 4.65  L 0 96.1 72.1 0 4.65 0  Q 2.75 0 1.35 1.35 Z"/>
        </g>

        <linearGradient id="background-gradient" x1="0" y1="0" y2="1" x2="0">
            <stop stop-color="#33ff4c" offset="0%"/>
            <stop stop-color="#0a40a2" offset="100%"/>
        </linearGradient>


        <filter id="drop-shadow">
            <feGaussianBlur in="SourceAlpha" stdDeviation="7"/>
            <feComponentTransfer>
                <feFuncA type="linear" slope="0.8"/>
            </feComponentTransfer>
            <feOffset dx="0" dy="0" result="offsetblur"/>
            <feFlood flood-color="#000"/>
            <feComposite in2="offsetblur" operator="in"/>
            <feMerge>
                <feMergeNode/>
                <feMergeNode in="SourceGraphic"/>
            </feMerge>
        </filter>

        <g transform="translate(-94 -100)" id="picture">
            <path d="M194 118.965c0-7.586-6.207-13.793-13.793-13.793-3.103 0-5.862 1.035-8.276 2.759-6.896-4.138-14.827-6.207-22.759-6.207-16.896 0-32.069 9.31-40 24.138h-1.379c-7.586 0-13.793 6.207-13.793 13.793 0 6.552 4.828 12.07 11.034 13.448 3.104 21.725 22.07 38.276 44.138 38.276 1.725 0 3.449 0 5.173-.345 2.414 4.138 6.896 7.242 12.069 7.242 7.586 0 13.793-6.207 13.793-13.793 0-1.724-.345-3.449-1.034-4.828 9.31-8.62 14.827-20.345 14.827-33.103 0-6.207-1.38-12.414-3.793-17.931 2.414-2.759 3.793-5.862 3.793-9.656zm-13.793-6.896c3.793 0 6.897 3.103 6.897 6.896s-3.104 6.897-6.897 6.897-6.897-3.103-6.897-6.897 3.104-6.896 6.897-6.896zm-79.31 27.586c0-3.793 3.103-6.896 6.896-6.896s6.897 3.103 6.897 6.896-3.104 6.897-6.897 6.897-6.896-3.104-6.896-6.897zm65.517 51.724c-3.793 0-6.897-3.103-6.897-6.896s3.104-6.897 6.897-6.897 6.896 3.104 6.896 6.897-3.103 6.896-6.896 6.896zm8.965-17.241c-2.413-2.07-5.517-3.448-8.965-3.448-7.586 0-13.793 6.207-13.793 13.793h-3.449c-18.62 0-34.482-13.793-37.24-31.724 5.516-1.725 9.654-6.897 9.654-13.104 0-4.483-2.414-8.62-5.862-11.034 6.552-12.414 19.31-20 33.448-20 6.552 0 12.76 1.724 18.276 4.827-.69 1.724-1.034 3.448-1.034 5.517 0 7.587 6.207 13.794 13.793 13.794 1.38 0 2.759-.345 4.138-.69 1.724 4.483 2.759 9.31 2.759 14.483 0 10.344-4.483 20.344-11.725 27.586z M172.078 144.518c0-9.097-10.29-16.404-23.039-16.404S126 135.421 126 144.518s10.29 16.403 23.04 16.403c1.842 0 3.84-.15 5.682-.447l8.909 6.114c.307.149.614.298.921.298s.615-.15.768-.298c.461-.299.768-.895.615-1.491l-1.69-8.202c4.915-3.132 7.834-7.606 7.834-12.377zm-10.29 10.289c-.615.298-.922.895-.768 1.64l1.075 5.518-6.298-4.325c-.307-.149-.614-.298-.921-.298h-.307c-1.69.447-3.687.597-5.53.597-11.059 0-19.967-5.965-19.967-13.421s8.908-13.422 19.967-13.422 19.968 5.965 19.968 13.422c0 4.026-2.612 7.754-7.22 10.289z"/>
        </g>

        <linearGradient id="picture-gradient" x1="0" y1="0" y2="1" x2="0">
            <stop stop-color="#ffffff" offset="0%"/>
            <stop stop-color="#e5eff9" offset="100%"/>
        </linearGradient>

    </defs>


    <use xlink:href="#background" fill="url(#background-gradient)"/>

    <use xlink:href="#middle-1"/>

    <g mask="url(#mask)">
        <g transform="
				        translate(
                                50 50
)
                            translate(5 0)  scale(0.8000000000000003) scale(-1 1)
                            translate(
                                -50 -50
)">
            <g filter="url(#drop-shadow)">
                <use xlink:href="#picture" fill="url(#picture-gradient)"/>
            </g>
        </g>
    </g>


    <use xlink:href="#gloss-left" opacity="0.8499999999999999"/>


</svg>
